<?xml version="1.0"?>
<svg width="807" height="720" xmlns="http://www.w3.org/2000/svg" xmlns:svg="http://www.w3.org/2000/svg" enable-background="new 0 0 807 720" version="1.1" xml:space="preserve">
 <g class="layer">
  <title>Layer 1</title>
  <path d="m30,118.5c2.14,9.16 6.47,11.74 17,11.95c11,0.22 22,0.06 33,0.04c6.88,-0.01 12.46,-4.42 14,-10.99c1.95,-8.32 -0.79,-14.69 -7.47,-18.06c-1.85,-0.93 -3.64,-0.93 -5.53,-0.93c-12,-0.02 -24,-0.01 -36,-0.01c-9.27,0 -13.54,3.98 -14.5,13.5c-0.14,1.34 -0.33,2.67 -0.5,4" fill="#0000ff" id="svg_1" opacity="1" stroke="#FFFFFF" stroke-linecap="round" stroke-linejoin="round" stroke-width="4" transform="matrix(1 0 0 1 0 0)"/>
  <path d="m253.5,45.5c-1.64,1.41 -3.62,0.99 -5.5,0.99c-22.5,0.01 -45.01,0.3 -67.5,-0.1c-14.12,-0.25 -19.05,10.7 -15.95,22.1c1.31,4.8 6.78,8.36 12.45,8.49c10,0.23 20,0.27 30,0.55c7.17,0.19 14.41,0.1 21.48,1.11c8.31,1.19 13.42,8.94 7.48,16.33c-2.22,2.76 -5.1,4.75 -8.96,4.53c-0.17,-0.01 -0.33,0 -0.5,0c-30.83,0.17 -61.67,0.34 -92.5,0.49c-9.95,0.05 -14.27,4.58 -14.58,14.51c-0.19,6.1 1.04,11.72 6.69,14.26c3.6,1.62 8.13,1.79 12.39,1.78c20,-0.08 40,0.22 60,-0.12c15.19,-0.26 30.33,1.26 45.5,1c7.54,-0.14 11.14,4.89 11.87,9.6c0.75,4.8 -5.32,10.78 -10.87,11.46c-1.32,0.16 -2.67,0.02 -4,0.02c-23.17,0 -46.33,-0.09 -69.5,0.07c-5.46,0.03 -10.9,1.05 -14.48,5.94c-4.6,6.27 -3.63,20.92 5.45,24.08c1.88,0.66 3.64,0.9 5.53,0.9c45.67,0.01 91.34,0.53 137,-0.27c16.32,-0.29 32.68,-0.8 49,-0.57c16.85,0.23 33.71,0.22 50.54,2.55c7.06,0.98 14.45,1.23 21.41,2.57c10.59,2.05 21.26,4.11 31.58,7.65c13.52,4.65 26.27,10.58 37.47,19.58c11,8.82 19.18,19.71 23.98,33.01c4.97,13.76 2.19,26.9 -4.04,39.46c-6.42,12.92 -16.64,22.55 -28.53,30.39c-1.23,0.82 -2.73,1.62 -3.28,2.7c-0.89,1.74 -1.9,4.29 1.87,4.45c2.17,0.1 4.42,0.79 6.49,0.42c18.04,-3.26 36.14,-6.32 53.5,-12.46c19.08,-6.75 36.96,-15.52 52.64,-28.82c13.42,-11.39 23.32,-25.15 30.69,-40.74c4.05,-8.57 6.48,-17.86 8.51,-27.34c2.66,-12.44 1.92,-24.8 1.34,-37.05c-0.53,-11.06 -4.09,-21.91 -9.16,-32.03c-8.34,-16.65 -20.16,-30.39 -35.04,-41.45c-11.44,-8.5 -23.29,-16.49 -36,-22.98c-11.78,-6.01 -23.92,-11.3 -36.48,-15.54c-18.73,-6.33 -37.86,-10.86 -57.47,-13.64c-12.31,-1.75 -24.63,-2.94 -37,-4.08c-26.65,-2.46 -53.37,-1.62 -80.01,-2.96c-31.02,-1.56 -62.01,-0.24 -93.01,-0.84" fill="#0000ff" id="svg_2" opacity="1" stroke="#FFFFFF" stroke-linecap="round" stroke-linejoin="round" stroke-width="4" transform="matrix(1 0 0 1 0 0)"/>
  <path d="m98.5,62c-5.57,0.53 -10.71,1.58 -14.07,6.96c-3.47,5.57 -2.3,11.56 -0.09,16.38c2.12,4.61 7.07,7.43 13.16,7.26c11.66,-0.33 23.33,-0.1 35,-0.1c8.77,-0.01 13.59,-5.26 14.11,-13.99c0.59,-9.91 -3.58,-13.98 -8.63,-15.43c-2.71,-0.78 -5.64,-1 -8.48,-1.03c-10.17,-0.12 -20.33,-0.05 -30.5,-0.05" fill="#0000ff" id="svg_3" opacity="1" stroke="#FFFFFF" stroke-linecap="round" stroke-linejoin="round" stroke-width="4" transform="matrix(1 0 0 1 0 0)"/>
  <path d="m89,137.5c-2.33,1.33 -5.27,2.16 -6.88,4.1c-4.46,5.33 -3.4,12 -1.87,17.84c1.42,5.44 6.51,7.99 12.25,8.03c12.33,0.09 24.67,0.14 37,-0.01c7.73,-0.1 13.3,-4.46 13.89,-11.47c0.75,-8.84 -1.45,-14.91 -8.42,-17.92c-1.46,-0.64 -3.3,-0.54 -4.97,-0.55c-13.5,-0.04 -27,-0.02 -40.5,-0.02" fill="#0000ff" id="svg_4" opacity="1" stroke="#FFFFFF" stroke-linecap="round" stroke-linejoin="round" stroke-width="4"/>
  <path d="m645,164.5c-2.8,1.21 -1.52,3.72 -1.39,5.49c0.35,4.69 1.33,9.33 1.87,14.01c1.36,11.87 1.44,23.57 -0.69,35.55c-2.13,11.93 -5.43,23.29 -10.9,33.89c-8.18,15.87 -19.33,29.26 -33.77,40.21c-15.91,12.06 -33.5,20.46 -52.16,26.73c-12.33,4.13 -25.09,6.83 -37.91,9.36c-12.96,2.55 -26.21,2.7 -39.05,5.75c-0.48,0.11 -1,0 -1.5,0.01c-14.5,0.33 -29.01,0.43 -43.5,1.04c-39.16,1.66 -78.35,0.15 -117.49,1.26c-12.83,0.36 -25.85,2.08 -38.52,5.18c-12.04,2.94 -23.79,6.44 -35.04,11.91c-20.03,9.74 -34.87,24.06 -44.06,44.56c-7.46,16.65 -9.81,34.1 -11.63,52.03c-2.63,26.02 -1.89,52.03 -1.42,78.01c0.19,10.95 -0.44,22.08 1.54,33.03c0.4,2.25 1.13,3.47 3.12,3.38c1.44,-0.07 2.65,-0.61 3.13,-2.87c3.3,-15.35 11.77,-27.79 22.9,-38.5c12.35,-11.89 27.59,-18.87 43.49,-24.48c14.71,-5.2 30.07,-7.64 45.5,-9.42c5.6,-0.64 11.32,-0.66 16.99,-1.03c12.64,-0.82 25.32,-1.06 37.99,-1.61c18.67,-0.8 37.39,-1.02 55.98,-2.73c11.33,-1.03 22.75,-1.55 34.08,-3.41c6.82,-1.12 13.88,-2.16 20.93,-2.47c5.03,-0.22 10.03,-1.45 15,-2.41c4.53,-0.87 9.05,-1.83 13.5,-3c12.3,-3.23 24.55,-6.41 36.62,-10.67c13.41,-4.73 26.36,-10.21 38.88,-16.82c15.89,-8.39 30.57,-18.6 43.97,-30.53c15.79,-14.07 30.11,-29.51 41.54,-47.45c8.89,-13.94 16.08,-28.73 20.92,-44.52c3.63,-11.86 5.97,-23.93 6.85,-36.46c1,-14.28 0.92,-28.4 -0.83,-42.51c-2.22,-17.94 -7.95,-34.94 -15,-51.48c-3.8,-8.94 -8.69,-17.35 -13.92,-25.54c-1.33,-2.07 -2.79,-3.73 -5.52,-3.49" fill="#007fff" id="svg_5" opacity="1" stroke="#FFFFFF" stroke-linecap="round" stroke-linejoin="round" stroke-width="4"/>
  <path d="m316,496.5c-3.33,0.67 -6.73,2.1 -9.99,1.84c-7.37,-0.59 -14.49,1.06 -21.47,2.38c-15.43,2.92 -30.6,7.19 -44.53,14.8c-22.56,12.34 -38.74,30.4 -48,54.48c-3.31,8.6 -5.55,17.47 -7.74,26.44c-4.12,16.92 -3.36,33.97 -3.9,51.06c-0.36,11.19 0.58,22.33 0.19,33.5c-0.15,4.37 -0.14,8.71 -1.06,13c-0.74,3.44 1.09,6.61 1.06,10c-0.02,2.5 2.03,2.44 3.94,2.53c12.88,0.56 25.67,-0.98 38.5,-1.59c11.67,-0.55 23.16,-2.8 34.48,-5.53c15.91,-3.84 30.9,-9.96 42.97,-21.46c8.32,-7.93 14.07,-17.57 18.17,-28.41c3.57,-9.47 5.69,-19.31 7.58,-29.1c1.09,-5.65 1.67,-11.61 2.2,-17.45c0.74,-8.3 0.45,-16.68 1.16,-24.98c2.06,-24.16 0.34,-48.35 0.94,-72.51c0.2,-7.89 -0.64,-9.64 -9,-9.02c-1.66,0.13 -3.33,0.02 -5,0.02" fill="#007fff" id="svg_6" opacity="1" stroke="#FFFFFF" stroke-linecap="round" stroke-linejoin="round" stroke-width="4"/>
 </g>
</svg>